<?xml version="1.0" encoding="UTF-8"?>
<svg version="1.1" xmlns="http://www.w3.org/2000/svg" width="600" height="600">
<path d="M0 0 C198 0 396 0 600 0 C600 198 600 396 600 600 C402 600 204 600 0 600 C0 402 0 204 0 0 Z " fill="#E11D38" transform="translate(0,0)"/>
<path d="M0 0 C6.39375 -0.0825 12.7875 -0.165 19.375 -0.25 C21.37224121 -0.28641602 23.36948242 -0.32283203 25.42724609 -0.36035156 C44.33726475 -0.56467281 44.33726475 -0.56467281 52.4375 5.96484375 C52.953125 6.61582031 53.46875 7.26679688 54 7.9375 C54.53625 8.58589844 55.0725 9.23429687 55.625 9.90234375 C59.79132896 16.25836264 59.67850918 22.61369754 59 30 C57.57793842 36.23322802 55.09299087 40.66546549 50.171875 44.74609375 C43.55190791 48.56805317 37.98775908 49.42340616 30.5 49.1875 C27.695 49.125625 24.89 49.06375 22 49 C22 58.24 22 67.48 22 77 C14.74 77 7.48 77 0 77 C0 51.59 0 26.18 0 0 Z " fill="#FEFCFC" transform="translate(114,262)"/>
<path d="M0 0 C7.26 0 14.52 0 22 0 C22.33 7.92 22.66 15.84 23 24 C25.31 22.68 27.62 21.36 30 20 C36.68835899 18.74862961 42.52791996 19.49131787 48.28125 23.125 C54.15916793 29.53727411 54.56010082 36.00124012 54.390625 44.28125 C54.38496521 45.33534058 54.37930542 46.38943115 54.37347412 47.47546387 C54.35121734 50.81745254 54.30103977 54.15833947 54.25 57.5 C54.22992123 59.7760261 54.21167288 62.05206913 54.1953125 64.328125 C54.15480193 69.88617487 54.07648809 75.4418652 54 81 C46.74 81 39.48 81 32 81 C32 66.81 32 52.62 32 38 C29.36 38 26.72 38 24 38 C21.82217319 40.17782681 22.73910084 45.25103078 22.68359375 48.28515625 C22.66281265 49.21597519 22.64203156 50.14679413 22.62062073 51.1058197 C22.55502069 54.09130182 22.49619198 57.07687484 22.4375 60.0625 C22.3943247 62.08138976 22.35071075 64.1002702 22.30664062 66.11914062 C22.19849982 71.07933513 22.09950451 76.03959451 22 81 C14.74 81 7.48 81 0 81 C0 54.27 0 27.54 0 0 Z " fill="#FDFAFA" transform="translate(341,258)"/>
<path d="M0 0 C7.26 0 14.52 0 22 0 C22.495 20.295 22.495 20.295 23 41 C26.24800503 34.79317679 26.24800503 34.79317679 29.49194336 28.58422852 C29.89550049 27.81522217 30.29905762 27.04621582 30.71484375 26.25390625 C31.33540649 25.06776733 31.33540649 25.06776733 31.96850586 23.85766602 C33 22 33 22 34 21 C35.78071246 20.91273777 37.5648314 20.89300959 39.34765625 20.90234375 C40.42724609 20.90556641 41.50683594 20.90878906 42.61914062 20.91210938 C44.32360352 20.92467773 44.32360352 20.92467773 46.0625 20.9375 C47.77276367 20.94426758 47.77276367 20.94426758 49.51757812 20.95117188 C52.34510351 20.96300253 55.1725264 20.9794859 58 21 C56.64211551 23.88033671 55.09083392 26.39816755 53.21484375 28.96875 C52.68439453 29.70480469 52.15394531 30.44085938 51.60742188 31.19921875 C50.49279129 32.734932 49.37559451 34.26878591 48.25585938 35.80078125 C47.72669922 36.53683594 47.19753906 37.27289063 46.65234375 38.03125 C46.16757568 38.69705078 45.68280762 39.36285156 45.18334961 40.04882812 C43.93854745 42.10132633 43.30239008 43.62068312 43 46 C44.04906068 48.4926399 45.15102556 50.76000417 46.4375 53.125 C47.17934625 54.54371447 47.91748793 55.96437086 48.65234375 57.38671875 C49.23024658 58.50506104 49.23024658 58.50506104 49.81982422 59.64599609 C51.84438988 63.68423815 53.67555684 67.80585582 55.5 71.9375 C55.8498999 72.72463379 56.1997998 73.51176758 56.56030273 74.32275391 C59 79.86222243 59 79.86222243 59 81 C50.75 81 42.5 81 34 81 C31.69 74.4 29.38 67.8 27 61 C22.57001436 65.42998564 22.3647241 67.44589683 22.25 73.25 C22.1675 75.8075 22.085 78.365 22 81 C14.74 81 7.48 81 0 81 C0 54.27 0 27.54 0 0 Z " fill="#FDFAFA" transform="translate(277,258)"/>
<path d="M0 0 C5.05397009 2.55641748 8.57189409 6.86021352 10.34765625 12.1875 C10.43453424 13.73720448 10.46534285 15.29039707 10.46118164 16.8425293 C10.46110611 17.78327805 10.46103058 18.72402679 10.46095276 19.69328308 C10.45579147 20.70586685 10.45063019 21.71845062 10.4453125 22.76171875 C10.44389755 23.80068802 10.4424826 24.83965729 10.44102478 25.91011047 C10.43542281 29.23176948 10.42286997 32.55336133 10.41015625 35.875 C10.4051415 38.12565007 10.40057855 40.37630119 10.39648438 42.62695312 C10.38545273 48.14716133 10.36818676 53.66731928 10.34765625 59.1875 C4.07765625 59.1875 -2.19234375 59.1875 -8.65234375 59.1875 C-8.65234375 57.5375 -8.65234375 55.8875 -8.65234375 54.1875 C-9.31234375 54.1875 -9.97234375 54.1875 -10.65234375 54.1875 C-10.98234375 55.1775 -11.31234375 56.1675 -11.65234375 57.1875 C-18.08013711 61.2235563 -25.27331311 60.95910537 -32.65234375 60.1875 C-37.34813608 58.21032428 -40.20475294 55.03136214 -42.734375 50.66796875 C-44.60535564 45.61234022 -44.3895611 40.46514942 -43.65234375 35.1875 C-41.07103195 29.62775151 -36.67831542 25.48562394 -31.01171875 23.0546875 C-26.84201811 21.97832292 -23.05890577 21.9681605 -18.77734375 22.0625 C-17.60171875 22.07603516 -17.60171875 22.07603516 -16.40234375 22.08984375 C-14.4855432 22.11321937 -12.56890184 22.14908347 -10.65234375 22.1875 C-10.77609375 20.90875 -10.89984375 19.63 -11.02734375 18.3125 C-11.09695312 17.59320313 -11.1665625 16.87390625 -11.23828125 16.1328125 C-11.51609124 13.96081755 -11.51609124 13.96081755 -13.65234375 12.1875 C-16.23588593 12.02062552 -16.23588593 12.02062552 -18.65234375 12.1875 C-19.31234375 14.1675 -19.97234375 16.1475 -20.65234375 18.1875 C-27.58234375 18.1875 -34.51234375 18.1875 -41.65234375 18.1875 C-40.47602796 7.60065789 -40.47602796 7.60065789 -35.65234375 3.1875 C-25.08047638 -3.24217372 -11.74839456 -3.68577084 0 0 Z " fill="#FDFAFA" transform="translate(216.65234375,279.8125)"/>
<path d="M0 0 C7.26 0 14.52 0 22 0 C22 26.73 22 53.46 22 81 C14.74 81 7.48 81 0 81 C0 54.27 0 27.54 0 0 Z " fill="#FDF9F9" transform="translate(464,258)"/>
<path d="M0 0 C7.26 0 14.52 0 22 0 C22 26.73 22 53.46 22 81 C14.74 81 7.48 81 0 81 C0 54.27 0 27.54 0 0 Z " fill="#FDFBFB" transform="translate(434,258)"/>
<path d="M0 0 C7.26 0 14.52 0 22 0 C22.33 2.31 22.66 4.62 23 7 C23.5775 6.21625 24.155 5.4325 24.75 4.625 C26.91749263 2.09625859 27.88790077 0.97808833 31 0 C33.31 0 35.62 0 38 0 C38 6.6 38 13.2 38 20 C35.64875 20.37125 35.64875 20.37125 33.25 20.75 C29.02497462 21.58663869 26.60399764 22.37704677 24 26 C22.52793987 28.94412027 22.76192808 31.96285915 22.68359375 35.1953125 C22.66281265 35.90275604 22.64203156 36.61019958 22.62062073 37.33908081 C22.55518922 39.60095425 22.49627026 41.86294462 22.4375 44.125 C22.39430867 45.65756422 22.35069418 47.19011657 22.30664062 48.72265625 C22.19871711 52.48165268 22.09959717 56.24073675 22 60 C14.74 60 7.48 60 0 60 C0 40.2 0 20.4 0 0 Z " fill="#FDF9FA" transform="translate(233,279)"/>
<path d="M0 0 C7.26 0 14.52 0 22 0 C22 19.8 22 39.6 22 60 C14.74 60 7.48 60 0 60 C0 40.2 0 20.4 0 0 Z " fill="#FEFBFB" transform="translate(403,279)"/>
<path d="M0 0 C7.26 0 14.52 0 22 0 C22 4.95 22 9.9 22 15 C14.74 15 7.48 15 0 15 C0 10.05 0 5.1 0 0 Z " fill="#FDFAFA" transform="translate(403,258)"/>
<path d="M0 0 C10.13528336 -0.48263254 10.13528336 -0.48263254 13.6875 1.5 C15.54471702 5.03755624 15.84522239 8.15461884 15 12 C13.125 15 13.125 15 10 17 C6.55189604 17.40534963 3.49364097 17.2329094 0 17 C0 11.39 0 5.78 0 0 Z " fill="#E1203B" transform="translate(136,278)"/>
<path d="M0 0 C1.8871875 0.061875 1.8871875 0.061875 3.8125 0.125 C4.02798663 3.78827268 4.00510598 6.59250111 2.75 10.0625 C0.8125 12.125 0.8125 12.125 -2.75 12.625 C-3.884375 12.46 -5.01875 12.295 -6.1875 12.125 C-8.1875 9.125 -8.1875 9.125 -8 5.5625 C-6.84010053 0.65523302 -4.70561706 -0.15428253 0 0 Z " fill="#DF1B33" transform="translate(202.1875,312.875)"/>
<path d="M0 0 C0.99 0.33 1.98 0.66 3 1 C3 1.99 3 2.98 3 4 C5.31 4 7.62 4 10 4 C10 10.93 10 17.86 10 25 C9.67 25 9.34 25 9 25 C9 18.4 9 11.8 9 5 C0.27230398 6.63238486 0.27230398 6.63238486 -5 12 C-5.99 12.495 -5.99 12.495 -7 13 C-6.81523971 8.38099287 -6.20125576 5.78017921 -2.9375 2.5625 C-1.968125 1.716875 -0.99875 0.87125 0 0 Z " fill="#E54057" transform="translate(262,274)"/>
<path d="M0 0 C10.56 0 21.12 0 32 0 C32 0.99 32 1.98 32 3 C19.46 3 6.92 3 -6 3 C-6 2.67 -6 2.34 -6 2 C-4.02 1.67 -2.04 1.34 0 1 C0 0.67 0 0.34 0 0 Z " fill="#E33E55" transform="translate(120,259)"/>
<path d="M0 0 C0 2.31 0 4.62 0 7 C-3 3.25 -3 3.25 -3 1 C-3.66 1 -4.32 1 -5 1 C-4.814375 1.78375 -4.62875 2.5675 -4.4375 3.375 C-4 6 -4 6 -5 8 C-5.99 8 -6.98 8 -8 8 C-8.33 6.68 -8.66 5.36 -9 4 C-9.66 4 -10.32 4 -11 4 C-10.67 3.01 -10.34 2.02 -10 1 C-6.78548731 -0.60725635 -3.56387464 -0.05748185 0 0 Z " fill="#E42946" transform="translate(206,313)"/>
<path d="M0 0 C2.54384726 1.27192363 2.69368156 2.19948469 3.6875 4.8125 C3.95949219 5.49957031 4.23148437 6.18664062 4.51171875 6.89453125 C5.06812731 9.29376496 4.77364938 10.6894364 4 13 C1.61327331 10.03716687 -0.7353371 7.05729491 -3 4 C-2.01 2.68 -1.02 1.36 0 0 Z " fill="#E32D47" transform="translate(303,318)"/>
<path d="M0 0 C6.27 0 12.54 0 19 0 C18.67 1.32 18.34 2.64 18 4 C15.36 3.67 12.72 3.34 10 3 C10 2.67 10 2.34 10 2 C6.7 1.67 3.4 1.34 0 1 C0 0.67 0 0.34 0 0 Z " fill="#E01633" transform="translate(175,298)"/>
<path d="M0 0 C0.33 0.66 0.66 1.32 1 2 C1.66 2 2.32 2 3 2 C3.625 5.375 3.625 5.375 4 9 C3.34 9.66 2.68 10.32 2 11 C0.68 10.01 -0.64 9.02 -2 8 C-1.34 5.36 -0.68 2.72 0 0 Z " fill="#E22C45" transform="translate(172,292)"/>
<path d="M0 0 C0.33 1.32 0.66 2.64 1 4 C1.66 4 2.32 4 3 4 C3 4.66 3 5.32 3 6 C5.31 5.01 7.62 4.02 10 3 C10 4.32 10 5.64 10 7 C9 8 9 8 5.5625 8.25 C4.386875 8.1675 3.21125 8.085 2 8 C-0.1519437 4.77208445 -0.20086443 3.71599191 0 0 Z " fill="#E22C48" transform="translate(194,317)"/>
<path d="M0 0 C2.12508244 3.18762365 2.5020163 5.26512223 3 9 C2.01 9.495 2.01 9.495 1 10 C0.67 9.01 0.34 8.02 0 7 C-0.99 7.495 -0.99 7.495 -2 8 C-2.20086443 4.28400809 -2.1519437 3.22791555 0 0 Z " fill="#E42D48" transform="translate(308,330)"/>
<path d="M0 0 C0.66 0 1.32 0 2 0 C2 1.98 2 3.96 2 6 C1.4225 5.79375 0.845 5.5875 0.25 5.375 C-2.51967567 4.91338739 -3.64561267 5.57055055 -6 7 C-6.66 6.34 -7.32 5.68 -8 5 C-6.865625 4.54625 -5.73125 4.0925 -4.5625 3.625 C-0.95278308 2.42904194 -0.95278308 2.42904194 0 0 Z " fill="#E3334E" transform="translate(206,334)"/>
<path d="M0 0 C0.66 0 1.32 0 2 0 C2 0.66 2 1.32 2 2 C2.66 2 3.32 2 4 2 C4 6 4 6 3 9 C0.9375 6.75 0.9375 6.75 -1 4 C-0.75 1.6875 -0.75 1.6875 0 0 Z " fill="#DF2740" transform="translate(320,300)"/>
<path d="M0 0 C0.33 0 0.66 0 1 0 C1.144375 0.78375 1.28875 1.5675 1.4375 2.375 C1.87798925 4.96421018 1.87798925 4.96421018 3 7 C2.0625 9.625 2.0625 9.625 1 12 C0.34 12 -0.32 12 -1 12 C-0.67 8.04 -0.34 4.08 0 0 Z " fill="#E01734" transform="translate(174,282)"/>
<path d="M0 0 C1.65 0.33 3.3 0.66 5 1 C5.33 1.99 5.66 2.98 6 4 C6.66 4.33 7.32 4.66 8 5 C7.01 5.495 7.01 5.495 6 6 C3.5249829 4.88568235 1.32116581 3.41849022 -1 2 C-0.67 1.34 -0.34 0.68 0 0 Z " fill="#E12943" transform="translate(381,275)"/>
</svg>
